<svg width="180" height="67" viewBox="0 0 180 67" fill="none" xmlns="http://www.w3.org/2000/svg">
<path d="M51.3133 6.84835C50.6261 6.01928 49.6222 5.99547 48.4783 5.96834C48.3487 5.96526 48.2173 5.96215 48.0843 5.95781C47.9831 5.95414 47.8713 5.95555 47.7546 5.95703C47.2907 5.9629 46.748 5.96977 46.4746 5.66265C46.1577 5.30659 46.1877 4.61849 46.2125 4.05044C46.2204 3.87094 46.2277 3.70332 46.2234 3.56206C46.1788 2.24248 46.0859 0.840733 45.4394 0.372133C44.9518 0.0205494 43.4933 0.0692565 42.1481 0.114176C41.712 0.128738 41.2879 0.142902 40.9126 0.142902H12.2808C11.7043 0.142902 11.1 0.105919 10.5063 0.069581C9.34933 -0.00122498 8.23243 -0.0695808 7.43929 0.142902C6.28821 0.452781 6.21027 2.08113 6.13688 3.61447L6.13293 3.69697C6.07131 4.9628 5.67314 5.93955 4.35351 5.84117C2.81868 5.72858 1.29143 5.69308 0.597488 6.7875C-0.222077 8.08237 -0.0530506 9.43783 0.249701 11.8657C0.292948 12.2125 0.338923 12.5811 0.385135 12.9746H51.756C51.7853 12.687 51.8166 12.4031 51.8473 12.1237C52.0879 9.93945 52.2975 8.0363 51.3133 6.84835Z" fill="#8047F8"/>
<path fill-rule="evenodd" clip-rule="evenodd" d="M4.38574 15.3826C5.18805 23.9377 5.98161 32.5025 6.77517 41.0676L6.77566 41.0728C7.20654 45.7233 7.63742 50.3739 8.06971 55.0229H9.70883C9.82052 55.7507 9.94832 56.6491 10.0831 57.5963C10.3566 59.5191 10.6588 61.6432 10.9128 62.9486H11.0941C12.7637 62.4673 24.3057 58.5804 24.3109 43.1058C24.3087 43.0616 24.3106 43.0175 24.3164 42.9737H21.4649C21.3268 42.9727 21.193 42.9364 21.0841 42.8704C20.9751 42.8044 20.897 42.7123 20.8617 42.6083C20.5838 42.0675 20.3598 41.5109 20.1916 40.9433C18.514 41.6897 17.1819 42.8296 16.385 44.2003C15.6285 42.7964 15.5295 41.2302 16.1052 39.7752C16.681 38.3203 17.8949 37.0692 19.5348 36.2405C19.5559 31.725 21.7018 27.3721 25.5663 24.0059L25.6266 23.9642C25.739 23.8877 25.8828 23.8451 26.0319 23.8441C26.1182 23.8447 26.2033 23.8592 26.282 23.8868C26.3617 23.9146 26.4329 23.9552 26.4912 24.0059C30.4008 27.3767 32.5354 31.7714 32.4691 36.3136C34.1396 37.1192 35.3782 38.3694 35.955 39.8322C36.5318 41.2951 36.4076 42.8712 35.6055 44.2682C34.8129 42.8952 33.4796 41.7545 31.7989 41.0112C31.6962 41.5612 31.5072 42.0994 31.236 42.6136C31.1422 42.8328 30.9545 42.9737 30.7669 42.9737H27.7259C27.7307 43 27.7341 43.0263 27.736 43.0528L27.7372 43.0589V43.0717C27.7383 43.0944 27.7383 43.1173 27.7373 43.1401C27.7789 59.059 40.0505 62.6723 41.085 62.9486H41.4388C41.5291 61.6948 41.8232 59.9646 42.1098 58.2779C42.3074 57.1156 42.5014 55.9739 42.6228 55.0229H44.2809C44.8116 49.167 45.3574 43.3274 45.9033 37.4877L45.9036 37.4845L45.9038 37.4828C46.602 30.0132 47.3002 22.5434 47.9668 15.0387H4.49192C4.36678 15.058 4.37531 15.2193 4.38574 15.3826ZM26.0319 23.8441L26.0287 23.8441H26.0354L26.0319 23.8441Z" fill="#8047F8"/>
<path d="M66.3386 9.51234C66.3386 7.40052 67.2621 5.76385 69.1089 4.60235C70.9894 3.41445 73.8101 2.8205 77.571 2.8205C80.0558 2.8205 82.1713 3.00529 83.9174 3.37485V8.8392C82.037 8.39043 80.1733 8.16605 78.3265 8.16605C76.5132 8.16605 75.3379 8.33764 74.8006 8.68081C74.2634 8.99758 73.9947 9.47274 73.9947 10.1063V23.4108C73.9947 24.6779 75.254 25.3114 77.7724 25.3114C80.3245 25.3114 82.4232 25.1134 84.0686 24.7175V30.063C82.2553 30.459 80.0558 30.657 77.4702 30.657C73.7093 30.657 70.9054 30.0762 69.0586 28.9147C67.2453 27.7532 66.3386 26.1165 66.3386 24.0047V9.51234Z" fill="#403937"/>
<path d="M98.7818 13.274C98.7818 12.2709 98.0767 11.7694 96.6663 11.7694C95.256 11.7694 94.5508 12.2709 94.5508 13.274V24.2819C94.5508 25.285 95.256 25.7866 96.6663 25.7866C98.0767 25.7866 98.7818 25.285 98.7818 24.2819V13.274ZM87.0962 13.076C87.0962 11.0698 87.8853 9.51234 89.4636 8.40363C91.0754 7.26853 93.4763 6.70098 96.6663 6.70098C99.8564 6.70098 102.241 7.26853 103.819 8.40363C105.431 9.51234 106.236 11.0698 106.236 13.076V24.4799C106.236 26.4861 105.431 28.0568 103.819 29.1919C102.241 30.3006 99.8564 30.855 96.6663 30.855C93.4763 30.855 91.0754 30.3006 89.4636 29.1919C87.8853 28.0568 87.0962 26.4861 87.0962 24.4799V13.076Z" fill="#403937"/>
<path d="M111.132 6.81977C111.132 2.35854 114.121 0.127926 120.098 0.127926C120.87 0.127926 121.794 0.193921 122.868 0.32591V4.91912C122.331 4.86633 121.827 4.83993 121.357 4.83993C119.644 4.83993 118.788 5.47348 118.788 6.74057V7.09694H122.868V11.7694H118.788V30.459H111.132V11.7694H108.261V7.09694H111.132V6.81977Z" fill="#403937"/>
<path d="M125.987 6.81977C125.987 2.35854 128.976 0.127926 134.953 0.127926C135.725 0.127926 136.648 0.193921 137.723 0.32591V4.91912C137.186 4.86633 136.682 4.83993 136.212 4.83993C134.499 4.83993 133.643 5.47348 133.643 6.74057V7.09694H137.723V11.7694H133.643V30.459H125.987V11.7694H123.116V7.09694H125.987V6.81977Z" fill="#403937"/>
<path d="M139.482 23.8067V13.076C139.482 11.0698 140.271 9.51234 141.849 8.40363C143.428 7.26853 145.812 6.70098 149.002 6.70098C155.147 6.70098 158.219 8.826 158.219 13.076V21.1142H146.786V23.3316C146.786 24.1235 147.054 24.6911 147.591 25.0342C148.162 25.351 149.388 25.5094 151.268 25.5094C153.182 25.5094 155.264 25.2454 157.514 24.7175V29.9442C155.164 30.4458 152.645 30.6966 149.959 30.6966C142.974 30.6966 139.482 28.4 139.482 23.8067ZM146.786 16.5605H151.218V13.1552C151.218 12.1521 150.479 11.6506 149.002 11.6506C147.524 11.6506 146.786 12.1521 146.786 13.1552V16.5605Z" fill="#403937"/>
<path d="M161.223 23.8067V13.076C161.223 11.0698 162.012 9.51234 163.591 8.40363C165.169 7.26853 167.553 6.70098 170.743 6.70098C176.888 6.70098 179.961 8.826 179.961 13.076V21.1142H168.527V23.3316C168.527 24.1235 168.795 24.6911 169.333 25.0342C169.904 25.351 171.129 25.5094 173.01 25.5094C174.924 25.5094 177.006 25.2454 179.255 24.7175V29.9442C176.905 30.4458 174.386 30.6966 171.7 30.6966C164.716 30.6966 161.223 28.4 161.223 23.8067ZM168.527 16.5605H172.959V13.1552C172.959 12.1521 172.221 11.6506 170.743 11.6506C169.266 11.6506 168.527 12.1521 168.527 13.1552V16.5605Z" fill="#403937"/>
<path d="M78.4621 45.0387C78.4621 43.0893 77.1534 42.1146 74.5359 42.1146H70.3617V59.8864H74.5359C77.1534 59.8864 78.4621 58.8901 78.4621 56.8974V45.0387ZM67.4274 40.1003H74.7012C76.9054 40.1003 78.5723 40.5443 79.702 41.4323C80.8316 42.3204 81.3964 43.5117 81.3964 45.0062V56.9624C81.3964 58.5002 80.8454 59.7131 79.7433 60.6012C78.6412 61.4892 76.9881 61.9333 74.7839 61.9333H67.4274V40.1003Z" fill="#403937"/>
<path d="M86.2254 57.2223V48.1902C86.2254 46.6523 86.7764 45.4286 87.8785 44.5188C89.0082 43.5875 90.7026 43.1218 92.9619 43.1218C95.2212 43.1218 96.8881 43.5875 97.9627 44.5188C99.0648 45.4286 99.6158 46.6523 99.6158 48.1902V53.8434H89.1184V57.1248C89.1184 58.0995 89.5041 58.8251 90.2756 59.3016C91.0471 59.7781 92.2456 60.0164 93.8712 60.0164C95.4967 60.0164 97.1774 59.8215 98.9132 59.4316V61.5759C97.5356 61.9224 95.8963 62.0957 93.9951 62.0957C88.8153 62.0957 86.2254 60.4712 86.2254 57.2223ZM89.1184 51.9265H96.8055V48.1902C96.8055 46.1542 95.5243 45.1362 92.9619 45.1362C90.3996 45.1362 89.1184 46.1542 89.1184 48.1902V51.9265Z" fill="#403937"/>
<path d="M104.639 38.5408H107.573V61.9333H104.639V38.5408Z" fill="#403937"/>
<path d="M114.723 41.3674C113.538 41.3674 112.946 40.8692 112.946 39.8728C112.946 38.8765 113.538 38.3783 114.723 38.3783C115.935 38.3783 116.541 38.8765 116.541 39.8728C116.541 40.8692 115.935 41.3674 114.723 41.3674ZM113.276 43.5767H116.21V61.9333H113.276V43.5767Z" fill="#403937"/>
<path d="M131.336 43.4467H134.312L129.104 61.9333H124.971L119.764 43.4467H122.781L125.054 51.9265L127.079 60.3088C127.906 56.7133 129.325 51.0926 131.336 43.4467Z" fill="#403937"/>
<path d="M137.442 57.2223V48.1902C137.442 46.6523 137.993 45.4286 139.095 44.5188C140.225 43.5875 141.919 43.1218 144.179 43.1218C146.438 43.1218 148.105 43.5875 149.179 44.5188C150.281 45.4286 150.832 46.6523 150.832 48.1902V53.8434H140.335V57.1248C140.335 58.0995 140.721 58.8251 141.492 59.3016C142.264 59.7781 143.462 60.0164 145.088 60.0164C146.713 60.0164 148.394 59.8215 150.13 59.4316V61.5759C148.752 61.9224 147.113 62.0957 145.212 62.0957C140.032 62.0957 137.442 60.4712 137.442 57.2223ZM140.335 51.9265H148.022V48.1902C148.022 46.1542 146.741 45.1362 144.179 45.1362C141.616 45.1362 140.335 46.1542 140.335 48.1902V51.9265Z" fill="#403937"/>
<path d="M163.46 43.3492H164.493V45.5585H163.088C162.096 45.5585 161.201 45.7643 160.402 46.1758C160.154 46.3058 159.617 46.5982 158.79 47.053V61.9333H155.856V43.4467H158.666V44.8437C158.749 44.8004 158.955 44.6813 159.286 44.4864C159.644 44.2914 159.851 44.1831 159.906 44.1615C159.989 44.1181 160.168 44.0315 160.443 43.9016C160.746 43.7716 160.967 43.6958 161.104 43.6741C161.27 43.6308 161.49 43.5767 161.766 43.5117C162.179 43.4034 162.744 43.3492 163.46 43.3492Z" fill="#403937"/>
<path d="M177.066 43.4467H180L173.553 66.7742H170.742L172.024 61.9333H170.577L165.452 43.4467H168.428L170.908 52.6413L172.726 60.3088C173.277 57.7529 173.883 55.1971 174.545 52.6413L177.066 43.4467Z" fill="#403937"/>
</svg>
